<svg width="96" height="50" viewBox="0 0 96 50" fill="none" xmlns="http://www.w3.org/2000/svg">
<path fill-rule="evenodd" clip-rule="evenodd" d="M88.6811 34.7901C89.2786 35.3129 90.1001 35.5743 91.1456 35.5743C91.8178 35.5743 92.4153 35.4623 92.9007 35.2382C93.3861 35.0142 93.7969 34.6781 94.0583 34.2674C94.3197 33.8566 94.469 33.3712 94.469 32.811H92.3779C92.3779 33.1098 92.2659 33.3712 92.0792 33.5952C91.8925 33.8193 91.5564 33.9313 91.1083 33.9313C90.6602 33.9313 90.3241 33.8193 90.1374 33.5952C89.9507 33.3712 89.8387 33.1098 89.8387 32.811H87.7849C87.7849 33.5952 88.0836 34.2674 88.6811 34.7901Z" fill="url(#paint0_linear_9_2366)"/>
<path fill-rule="evenodd" clip-rule="evenodd" d="M53.9161 36.3955H50.6674V38.748H53.9161V46.9258H56.9781V38.748H60.3015V36.3955H56.9781H53.9161Z" fill="url(#paint1_linear_9_2366)"/>
<path fill-rule="evenodd" clip-rule="evenodd" d="M82.5197 37.6656C82.0716 37.2175 81.5488 36.844 80.914 36.62C80.3166 36.3959 79.6444 36.2466 78.8976 36.2466C78.1508 36.2466 77.4786 36.3586 76.8438 36.62C76.2463 36.844 75.6862 37.2175 75.2381 37.6656C74.79 38.1137 74.454 38.6738 74.1926 39.3086C73.9685 39.9434 73.8192 40.6529 73.8192 41.4744V41.8478C73.8192 42.632 73.9312 43.3788 74.1926 44.0136C74.454 44.6484 74.79 45.2086 75.2381 45.6566C75.6862 46.1047 76.209 46.4408 76.8438 46.7022C77.4786 46.9263 78.1508 47.0756 78.8976 47.0756C79.6444 47.0756 80.3166 46.9636 80.914 46.7022C81.5115 46.4782 82.0716 46.1047 82.5197 45.6566C82.9678 45.2086 83.3039 44.6484 83.5653 44.0136C83.8267 43.3788 83.9387 42.632 83.9387 41.8478V41.4744C83.9387 40.6529 83.8267 39.9434 83.5653 39.3086C83.3412 38.6738 82.9678 38.1137 82.5197 37.6656ZM80.8767 41.8478C80.8767 42.2959 80.8394 42.7067 80.7273 43.0801C80.6527 43.4535 80.5033 43.7522 80.3539 43.9763C80.1672 44.2377 79.9805 44.4244 79.7191 44.5364C79.4951 44.6858 79.1963 44.7231 78.8976 44.7231C78.5615 44.7231 78.2628 44.6484 78.0387 44.5364C77.7773 44.387 77.5906 44.2003 77.4039 43.9763C77.2172 43.7149 77.1052 43.4162 77.0305 43.0801C76.9558 42.7067 76.9185 42.2959 76.9185 41.8478V41.4744C76.9185 41.0263 76.9558 40.6155 77.0305 40.2421C77.1052 39.8687 77.2546 39.57 77.4039 39.3459C77.5533 39.0845 77.7774 38.8978 78.0014 38.7858C78.2628 38.6364 78.5615 38.5991 78.8603 38.5991C79.159 38.5991 79.4577 38.6738 79.6818 38.7858C79.9432 38.8978 80.1299 39.0845 80.3166 39.3459C80.5033 39.6073 80.6153 39.9061 80.7273 40.2421C80.802 40.6155 80.8767 40.989 80.8767 41.4744V41.8478Z" fill="url(#paint2_linear_9_2366)"/>
<path fill-rule="evenodd" clip-rule="evenodd" d="M69.4876 36.8809C68.8154 36.5449 68.0312 36.3955 67.0977 36.3955H62.5047V46.9258H65.5667V43.6398H67.0977C67.8072 43.6398 68.4047 43.5651 68.9648 43.3784C69.5249 43.1917 69.973 42.9676 70.3838 42.6689C70.7572 42.3702 71.0559 41.9967 71.28 41.586C71.504 41.1752 71.5787 40.6898 71.5787 40.2043C71.5787 39.4949 71.392 38.8227 71.0186 38.2626C70.6825 37.6651 70.1597 37.217 69.4876 36.8809ZM68.4047 40.7271C68.2926 40.9138 68.1433 41.0259 67.9192 41.1379C67.6952 41.2499 67.4338 41.2872 67.0977 41.2872H65.5667V38.748H67.0977C67.4338 38.748 67.6952 38.8227 67.9192 38.9347C68.1433 39.0841 68.2926 39.2335 68.4047 39.4575C68.5167 39.6816 68.554 39.9056 68.554 40.167C68.554 40.3911 68.5167 40.5778 68.4047 40.7271Z" fill="url(#paint3_linear_9_2366)"/>
<path fill-rule="evenodd" clip-rule="evenodd" d="M92.938 36.3955L89.3906 42.2581V36.3955H86.3286V46.9258H89.3906L92.938 41.0259V46.9258H96V36.3955H92.938Z" fill="url(#paint4_linear_9_2366)"/>
<path fill-rule="evenodd" clip-rule="evenodd" d="M42.1909 36.5825C42.0788 36.6572 42.0042 36.7318 41.9295 36.8065C39.1662 39.1217 36.2536 40.5033 33.3036 41.0261C30.2416 41.5489 27.0675 41.0635 23.8562 39.6071C20.6075 38.1135 18.1429 36.097 16.5372 33.5205C14.8942 30.9439 14.11 27.8819 14.1847 24.3344C14.3341 17.837 17.5455 12.8706 23.5574 9.99531C29.5321 7.12001 35.5067 7.79216 40.8839 11.8997C41.4067 12.3105 41.8921 12.7586 42.3029 13.2067L42.751 13.6921L46.0744 5.21559L45.813 5.02888C40.2118 0.846633 33.3409 -0.796394 26.5074 0.361193C24.7524 0.659926 23.0347 1.10802 21.429 1.78017C21.317 1.55612 21.2049 1.33207 21.0929 1.10802C20.9062 0.697267 20.6075 0.547901 20.1594 0.622584C19.5992 0.734609 19.0391 0.883975 18.479 1.03334C17.9189 1.18271 17.3588 1.29473 16.7986 1.4441C16.3879 1.51878 16.2385 1.78017 16.2385 2.19093C16.2385 2.30295 16.2385 2.37764 16.2385 2.48966C16.2385 3.01244 16.2385 3.49788 16.2012 4.02066C16.1638 4.28205 16.1265 4.5061 16.0518 4.73015C15.0809 5.43964 14.1474 6.22381 13.2512 7.08267C12.6537 7.15735 12.0189 7.04533 11.4215 6.74659C10.824 6.44786 10.3012 6.07445 9.74108 5.70103C9.36767 5.43964 9.03159 5.4023 8.69552 5.73837C7.94869 6.44786 7.20186 7.15735 6.41769 7.86684C5.89491 8.31494 5.78288 8.76304 6.19364 9.32316C6.343 9.50987 6.45503 9.73392 6.56705 9.95796C6.64174 10.07 6.67908 10.2194 6.75376 10.3314C7.42591 11.5263 7.50059 12.7586 6.71642 13.9162C5.96959 15.0738 4.812 15.4845 3.46771 15.3725C3.39302 15.3725 3.281 15.3725 3.20632 15.3351C2.8329 15.2978 2.45949 15.2605 2.04873 15.2978C1.78734 15.3351 1.45127 15.5219 1.37658 15.7459C1.04051 16.6794 0.741776 17.6877 0.443044 18.6585C0.405703 18.8452 0.331019 19.032 0.293678 19.2187C0.181653 19.6294 0.331019 19.8908 0.704435 20.0775C1.22722 20.3762 1.75 20.7123 2.27278 21.0484C4.32656 22.3927 4.21454 25.4174 2.04873 26.6123C1.52595 26.911 1.00317 27.1724 0.480386 27.4338C0.10697 27.6205 -0.0797373 27.8819 0.0322873 28.2927L0.853801 31.7654C0.928484 32.1388 1.18987 32.2882 1.56329 32.3255C2.16075 32.3255 2.75822 32.3629 3.35568 32.4002C5.96959 32.5122 7.38857 35.2008 6.00693 37.404C5.7082 37.8521 5.40947 38.3375 5.11073 38.7856C4.84934 39.159 4.84934 39.4578 5.14808 39.7938C5.55883 40.2419 5.96959 40.6527 6.343 41.1008C6.75376 41.5489 7.16452 41.9596 7.53793 42.4077C7.83667 42.7438 8.17274 42.7438 8.54615 42.5198C8.99425 42.2584 9.40501 41.997 9.85311 41.7356C10.5999 41.3248 11.3468 41.2128 12.0189 41.2875C12.8778 42.221 13.774 43.1172 14.7448 43.9388C14.7822 44.2001 14.8195 44.4242 14.7822 44.6856C14.7448 45.0217 14.7448 45.3204 14.7448 45.6565C14.7448 45.9179 14.7448 46.1792 14.7075 46.4033C14.6702 46.814 14.8195 47.0381 15.1556 47.1501L18.5537 48.233C19.0018 48.3824 19.3379 48.1957 19.5619 47.7849C19.6739 47.5982 19.786 47.3742 19.898 47.1875C21.0182 47.7102 22.2132 48.1583 23.4454 48.5318C25.9846 49.2786 28.4492 49.652 30.9137 49.652C36.0295 49.652 40.9213 48.0463 45.5516 44.8349C45.6263 44.7976 45.701 44.7229 45.7757 44.6856L45.813 44.6482C45.8503 44.6109 45.8503 44.6109 45.8877 44.5736L46.1491 44.3868L42.6016 36.3958L42.1909 36.5825Z" fill="url(#paint5_linear_9_2366)"/>
<path fill-rule="evenodd" clip-rule="evenodd" d="M67.2097 30.3841H67.247H68.2179V33.3714H71.0932L71.2426 28.0316H69.1888V19.8911H66.1268V28.0316H62.3553V19.8911H59.3306V30.3841H61.235H62.3553H66.1268H67.2097Z" fill="url(#paint6_linear_9_2366)"/>
<path fill-rule="evenodd" clip-rule="evenodd" d="M43.4978 19.8911H39.7263H38.6061H36.7017V30.3841H39.7263V22.2063H43.4978V30.3841H46.5598V19.8911H44.6181H43.4978Z" fill="url(#paint7_linear_9_2366)"/>
<path fill-rule="evenodd" clip-rule="evenodd" d="M52.3104 30.3841H57.2022V28.0689H52.3104V26.1271H56.418V23.7746H52.3104V22.2063H57.2395V19.8911H52.3104H51.1528H49.2484V30.3841H51.1528H52.3104Z" fill="url(#paint8_linear_9_2366)"/>
<defs>
<linearGradient id="paint0_linear_9_2366" x1="87.019" y1="32.2187" x2="90.0739" y2="38.9516" gradientUnits="userSpaceOnUse">
<stop stop-color="#2323B3"/>
<stop offset="0.737625" stop-color="#0A0D46"/>
<stop offset="1" stop-color="#010620"/>
</linearGradient>
<linearGradient id="paint1_linear_9_2366" x1="49.5634" y1="34.1383" x2="64.7807" y2="46.8235" gradientUnits="userSpaceOnUse">
<stop stop-color="#2323B3"/>
<stop offset="0.737625" stop-color="#0A0D46"/>
<stop offset="1" stop-color="#010620"/>
</linearGradient>
<linearGradient id="paint2_linear_9_2366" x1="72.6596" y1="33.9254" x2="88.3649" y2="47.2977" gradientUnits="userSpaceOnUse">
<stop stop-color="#2323B3"/>
<stop offset="0.737625" stop-color="#0A0D46"/>
<stop offset="1" stop-color="#010620"/>
</linearGradient>
<linearGradient id="paint3_linear_9_2366" x1="61.465" y1="34.1383" x2="76.4931" y2="45.9375" gradientUnits="userSpaceOnUse">
<stop stop-color="#2323B3"/>
<stop offset="0.737625" stop-color="#0A0D46"/>
<stop offset="1" stop-color="#010620"/>
</linearGradient>
<linearGradient id="paint4_linear_9_2366" x1="85.2204" y1="34.1383" x2="100.448" y2="46.8814" gradientUnits="userSpaceOnUse">
<stop stop-color="#2323B3"/>
<stop offset="0.737625" stop-color="#0A0D46"/>
<stop offset="1" stop-color="#010620"/>
</linearGradient>
<linearGradient id="paint5_linear_9_2366" x1="-5.28792" y1="-10.643" x2="66.6591" y2="50.2868" gradientUnits="userSpaceOnUse">
<stop stop-color="#2323B3"/>
<stop offset="0.737625" stop-color="#0A0D46"/>
<stop offset="1" stop-color="#010620"/>
</linearGradient>
<linearGradient id="paint6_linear_9_2366" x1="57.9657" y1="17.0016" x2="77.3132" y2="32.5791" gradientUnits="userSpaceOnUse">
<stop stop-color="#2323B3"/>
<stop offset="0.737625" stop-color="#0A0D46"/>
<stop offset="1" stop-color="#010620"/>
</linearGradient>
<linearGradient id="paint7_linear_9_2366" x1="35.5721" y1="17.6419" x2="50.8028" y2="30.6798" gradientUnits="userSpaceOnUse">
<stop stop-color="#2323B3"/>
<stop offset="0.737625" stop-color="#0A0D46"/>
<stop offset="1" stop-color="#010620"/>
</linearGradient>
<linearGradient id="paint8_linear_9_2366" x1="48.3328" y1="17.6419" x2="62.7729" y2="27.662" gradientUnits="userSpaceOnUse">
<stop stop-color="#2323B3"/>
<stop offset="0.737625" stop-color="#0A0D46"/>
<stop offset="1" stop-color="#010620"/>
</linearGradient>
</defs>
</svg>
